<?xml version="1.0" encoding="UTF-8" standalone="no"?>
<!-- Created with Inkscape (http://www.inkscape.org/) -->

<svg
   xmlns:ns0="http://www.iki.fi/pav/software/textext/"
   xmlns:dc="http://purl.org/dc/elements/1.1/"
   xmlns:cc="http://creativecommons.org/ns#"
   xmlns:rdf="http://www.w3.org/1999/02/22-rdf-syntax-ns#"
   xmlns:svg="http://www.w3.org/2000/svg"
   xmlns="http://www.w3.org/2000/svg"
   xmlns:sodipodi="http://sodipodi.sourceforge.net/DTD/sodipodi-0.dtd"
   xmlns:inkscape="http://www.inkscape.org/namespaces/inkscape"
   sodipodi:docname="1A 2 simplex.svg"
   inkscape:version="0.92.1 r15371"
   id="svg3772"
   version="1.1"
   viewBox="0 0 117.15699 105.3091"
   height="105.30912mm"
   width="117.15697mm">
  <sodipodi:namedview
     inkscape:window-maximized="1"
     inkscape:window-y="1163"
     inkscape:window-x="-8"
     inkscape:window-height="1027"
     inkscape:window-width="1920"
     showgrid="true"
     inkscape:current-layer="layer1"
     inkscape:document-units="mm"
     inkscape:cy="257.15874"
     inkscape:cx="352.38628"
     inkscape:zoom="1.4179352"
     inkscape:pageshadow="2"
     inkscape:pageopacity="0.0"
     borderopacity="1.0"
     bordercolor="#666666"
     pagecolor="#ffffff"
     id="base">
    <inkscape:grid
       type="xygrid"
       id="grid3808"
       spacingx="2.6458333"
       spacingy="2.6458333"
       originx="-140.01163"
       originy="-20.669933" />
  </sodipodi:namedview>
  <defs
     id="defs3766">
    <marker
       inkscape:stockid="Arrow1Lend"
       orient="auto"
       refY="0"
       refX="0"
       id="marker6090"
       style="overflow:visible"
       inkscape:isstock="true">
      <path
         id="path6088"
         d="M 0,0 5,-5 -12.5,0 5,5 Z"
         style="fill:#000000;fill-opacity:1;fill-rule:evenodd;stroke:#000000;stroke-width:1.00000003pt;stroke-opacity:1"
         transform="matrix(-0.8,0,0,-0.8,-10,0)"
         inkscape:connector-curvature="0" />
    </marker>
    <marker
       inkscape:stockid="Arrow2Lend"
       orient="auto"
       refY="0"
       refX="0"
       id="marker6050"
       style="overflow:visible"
       inkscape:isstock="true">
      <path
         id="path6048"
         style="fill:#000000;fill-opacity:1;fill-rule:evenodd;stroke:#000000;stroke-width:0.625;stroke-linejoin:round;stroke-opacity:1"
         d="M 8.7185878,4.0337352 -2.2072895,0.01601326 8.7185884,-4.0017078 c -1.7454984,2.3720609 -1.7354408,5.6174519 -6e-7,8.035443 z"
         transform="matrix(-1.1,0,0,-1.1,-1.1,0)"
         inkscape:connector-curvature="0" />
    </marker>
    <marker
       inkscape:stockid="Arrow1Lend"
       orient="auto"
       refY="0"
       refX="0"
       id="marker6012"
       style="overflow:visible"
       inkscape:isstock="true">
      <path
         id="path6010"
         d="M 0,0 5,-5 -12.5,0 5,5 Z"
         style="fill:#000000;fill-opacity:1;fill-rule:evenodd;stroke:#000000;stroke-width:1.00000003pt;stroke-opacity:1"
         transform="matrix(-0.8,0,0,-0.8,-10,0)"
         inkscape:connector-curvature="0" />
    </marker>
    <marker
       inkscape:stockid="Tail"
       orient="auto"
       refY="0"
       refX="0"
       id="Tail"
       style="overflow:visible"
       inkscape:isstock="true">
      <g
         id="g5440"
         transform="scale(-1.2)"
         style="fill:#000000;fill-opacity:1;stroke:#000000;stroke-opacity:1">
        <path
           id="path5428"
           d="M -3.8048674,-3.9585227 0.54352094,0"
           style="fill:#000000;fill-opacity:1;fill-rule:evenodd;stroke:#000000;stroke-width:0.80000001;stroke-linecap:round;stroke-opacity:1"
           inkscape:connector-curvature="0" />
        <path
           id="path5430"
           d="M -1.2866832,-3.9585227 3.0617053,0"
           style="fill:#000000;fill-opacity:1;fill-rule:evenodd;stroke:#000000;stroke-width:0.80000001;stroke-linecap:round;stroke-opacity:1"
           inkscape:connector-curvature="0" />
        <path
           id="path5432"
           d="M 1.3053582,-3.9585227 5.6537466,0"
           style="fill:#000000;fill-opacity:1;fill-rule:evenodd;stroke:#000000;stroke-width:0.80000001;stroke-linecap:round;stroke-opacity:1"
           inkscape:connector-curvature="0" />
        <path
           id="path5434"
           d="M -3.8048674,4.1775838 0.54352094,0.21974226"
           style="fill:#000000;fill-opacity:1;fill-rule:evenodd;stroke:#000000;stroke-width:0.80000001;stroke-linecap:round;stroke-opacity:1"
           inkscape:connector-curvature="0" />
        <path
           id="path5436"
           d="M -1.2866832,4.1775838 3.0617053,0.21974226"
           style="fill:#000000;fill-opacity:1;fill-rule:evenodd;stroke:#000000;stroke-width:0.80000001;stroke-linecap:round;stroke-opacity:1"
           inkscape:connector-curvature="0" />
        <path
           id="path5438"
           d="M 1.3053582,4.1775838 5.6537466,0.21974226"
           style="fill:#000000;fill-opacity:1;fill-rule:evenodd;stroke:#000000;stroke-width:0.80000001;stroke-linecap:round;stroke-opacity:1"
           inkscape:connector-curvature="0" />
      </g>
    </marker>
    <marker
       inkscape:stockid="Scissors"
       orient="auto"
       refY="0"
       refX="0"
       id="Scissors"
       style="overflow:visible"
       inkscape:isstock="true">
      <path
         id="schere"
         d="M 9.0898857,-3.6061018 C 8.1198849,-4.7769976 6.3697607,-4.7358294 5.0623558,-4.2327734 l -8.2124046,3.0779029 c -2.3882933,-1.3067135 -4.7482873,-0.9325372 -4.7482873,-1.5687873 0,-0.4973164 0.4566662,-0.3883222 0.3883068,-1.6831941 -0.065635,-1.2432767 -1.3635771,-2.1630796 -2.5903987,-2.0816435 -1.227271,-0.00735 -2.499439,0.9331613 -2.510341,2.2300611 -0.09143,1.3063864 1.007209,2.5196896 2.306764,2.6052316 1.5223406,0.2266616 4.218258,-0.6955566 5.482945,1.57086006 -0.9422847,1.73825774 -2.6140244,1.74307674 -4.1255107,1.65607034 -1.2548743,-0.072235 -2.7620933,0.2873979 -3.3606483,1.5208605 -0.578367,1.1820862 -0.0112,2.8646022 1.316749,3.226412 1.3401912,0.4918277 3.1806689,-0.129711 3.4993722,-1.6707242 0.2456585,-1.187823 -0.5953659,-1.7459574 -0.2725074,-2.1771537 0.2436135,-0.32536 1.7907806,-0.1368452 4.5471053,-1.3748244 L 5.6763468,4.2330688 C 6.8000164,4.5467672 8.1730685,4.5362646 9.1684433,3.4313614 l -9.22008423,-3.48508362 z m -18.3078016,-1.900504 c 1.294559,0.7227998 1.1888392,2.6835702 -0.1564272,3.0632889 -1.2165179,0.423661 -2.7710269,-0.7589694 -2.3831779,-2.0774648 0.227148,-1.0818519 1.653387,-1.480632 2.5396051,-0.9858241 z m 0.056264,8.0173649 c 1.3508301,0.4988648 1.1214429,2.7844356 -0.2522207,3.091609 -0.9110594,0.3163391 -2.2135494,-0.1387976 -2.3056964,-1.2121394 -0.177609,-1.305055 1.356085,-2.4841482 2.5579171,-1.8794696 z"
         style="fill:#000000;fill-opacity:1;stroke:#000000;stroke-opacity:1"
         inkscape:connector-curvature="0" />
    </marker>
    <marker
       inkscape:stockid="Arrow2Lend"
       orient="auto"
       refY="0"
       refX="0"
       id="Arrow2Lend"
       style="overflow:visible"
       inkscape:isstock="true">
      <path
         id="path5413"
         style="fill:#000000;fill-opacity:1;fill-rule:evenodd;stroke:#000000;stroke-width:0.625;stroke-linejoin:round;stroke-opacity:1"
         d="M 8.7185878,4.0337352 -2.2072895,0.01601326 8.7185884,-4.0017078 c -1.7454984,2.3720609 -1.7354408,5.6174519 -6e-7,8.035443 z"
         transform="matrix(-1.1,0,0,-1.1,-1.1,0)"
         inkscape:connector-curvature="0" />
    </marker>
    <marker
       inkscape:stockid="Arrow1Lend"
       orient="auto"
       refY="0"
       refX="0"
       id="marker5904"
       style="overflow:visible"
       inkscape:isstock="true">
      <path
         id="path5902"
         d="M 0,0 5,-5 -12.5,0 5,5 Z"
         style="fill:#000000;fill-opacity:1;fill-rule:evenodd;stroke:#000000;stroke-width:1.00000003pt;stroke-opacity:1"
         transform="matrix(-0.8,0,0,-0.8,-10,0)"
         inkscape:connector-curvature="0" />
    </marker>
    <marker
       inkscape:stockid="Arrow1Lstart"
       orient="auto"
       refY="0"
       refX="0"
       id="Arrow1Lstart"
       style="overflow:visible"
       inkscape:isstock="true">
      <path
         id="path5392"
         d="M 0,0 5,-5 -12.5,0 5,5 Z"
         style="fill:#000000;fill-opacity:1;fill-rule:evenodd;stroke:#000000;stroke-width:1.00000003pt;stroke-opacity:1"
         transform="matrix(0.8,0,0,0.8,10,0)"
         inkscape:connector-curvature="0" />
    </marker>
    <marker
       inkscape:stockid="Arrow1Mend"
       orient="auto"
       refY="0"
       refX="0"
       id="Arrow1Mend"
       style="overflow:visible"
       inkscape:isstock="true">
      <path
         id="path5401"
         d="M 0,0 5,-5 -12.5,0 5,5 Z"
         style="fill:#000000;fill-opacity:1;fill-rule:evenodd;stroke:#000000;stroke-width:1.00000003pt;stroke-opacity:1"
         transform="matrix(-0.4,0,0,-0.4,-4,0)"
         inkscape:connector-curvature="0" />
    </marker>
    <marker
       inkscape:stockid="Arrow1Lend"
       orient="auto"
       refY="0"
       refX="0"
       id="Arrow1Lend"
       style="overflow:visible"
       inkscape:isstock="true">
      <path
         id="path5395"
         d="M 0,0 5,-5 -12.5,0 5,5 Z"
         style="fill:#000000;fill-opacity:1;fill-rule:evenodd;stroke:#000000;stroke-width:1.00000003pt;stroke-opacity:1"
         transform="matrix(-0.8,0,0,-0.8,-10,0)"
         inkscape:connector-curvature="0" />
    </marker>
    <marker
       inkscape:stockid="Arrow1Lend"
       orient="auto"
       refY="0"
       refX="0"
       id="marker6090-9"
       style="overflow:visible"
       inkscape:isstock="true">
      <path
         inkscape:connector-curvature="0"
         id="path6088-2"
         d="M 0,0 5,-5 -12.5,0 5,5 Z"
         style="fill:#000000;fill-opacity:1;fill-rule:evenodd;stroke:#000000;stroke-width:1.00000003pt;stroke-opacity:1"
         transform="matrix(-0.8,0,0,-0.8,-10,0)" />
    </marker>
    <marker
       inkscape:stockid="Arrow1Lend"
       orient="auto"
       refY="0"
       refX="0"
       id="marker6090-1"
       style="overflow:visible"
       inkscape:isstock="true">
      <path
         inkscape:connector-curvature="0"
         id="path6088-4"
         d="M 0,0 5,-5 -12.5,0 5,5 Z"
         style="fill:#000000;fill-opacity:1;fill-rule:evenodd;stroke:#000000;stroke-width:1.00000003pt;stroke-opacity:1"
         transform="matrix(-0.8,0,0,-0.8,-10,0)" />
    </marker>
    <marker
       inkscape:stockid="Arrow1Lend"
       orient="auto"
       refY="0"
       refX="0"
       id="marker6090-92"
       style="overflow:visible"
       inkscape:isstock="true">
      <path
         inkscape:connector-curvature="0"
         id="path6088-5"
         d="M 0,0 5,-5 -12.5,0 5,5 Z"
         style="fill:#000000;fill-opacity:1;fill-rule:evenodd;stroke:#000000;stroke-width:1.00000003pt;stroke-opacity:1"
         transform="matrix(-0.8,0,0,-0.8,-10,0)" />
    </marker>
  </defs>
  <metadata
     id="metadata3769">
    <rdf:RDF>
      <cc:Work
         rdf:about="">
        <dc:format>image/svg+xml</dc:format>
        <dc:type
           rdf:resource="http://purl.org/dc/dcmitype/StillImage" />
        <dc:title />
      </cc:Work>
    </rdf:RDF>
  </metadata>
  <g
     inkscape:label="Layer 1"
     inkscape:groupmode="layer"
     id="layer1"
     transform="translate(-39.834953,-202.42005)">
    <path
       style="fill:#000000;fill-opacity:0.04020099;stroke:#000000;stroke-width:0.30000001;stroke-linecap:butt;stroke-linejoin:miter;stroke-miterlimit:4;stroke-dasharray:none;stroke-opacity:1"
       d="m 68.837253,272.98243 29.57108,-50.27083 14.682907,24.96095 14.88817,25.30988 z"
       id="path3810"
       inkscape:connector-curvature="0"
       sodipodi:nodetypes="ccccc" />
    <g
       style="font-style:normal;font-variant:normal;font-weight:normal;font-stretch:normal;letter-spacing:normal;word-spacing:normal;text-anchor:start;fill:#000000;fill-opacity:1;fill-rule:evenodd;stroke:#000000;stroke-linecap:butt;stroke-linejoin:miter;stroke-miterlimit:10.43299961;stroke-dasharray:none;stroke-dashoffset:0;stroke-opacity:1"
       id="content"
       transform="matrix(1,0,0,-1,-56.767506,965.05577)"
       xml:space="preserve"
       stroke-miterlimit="10.433"
       font-style="normal"
       font-variant="normal"
       font-weight="normal"
       font-stretch="normal"
       font-size-adjust="none"
       letter-spacing="normal"
       word-spacing="normal"
       ns0:text="$\\Delta^2$"
       ns0:preamble="C:\\Users\\Xianglong Ni\\AppData\\Roaming\\inkscape\\extensions\\default_packages.tex"><path
         style="fill:#000000;stroke-width:0"
         inkscape:connector-curvature="0"
         d="m 153.11,714.06 -0.01,0.01 v 0.01 l -0.01,0.01 v 0.01 l -0.01,0.01 -0.01,0.01 v 0.01 l -0.01,0.01 v 0.01 l -0.01,0.01 v 0.01 h -0.01 v 0.01 l -0.01,0.01 h -0.01 v 0.01 h -0.01 l -0.01,0.01 v 0 l -0.01,0.01 h -0.01 -0.01 l -0.01,0.01 h -0.01 -0.01 -0.01 -0.01 l -0.01,0.01 h -0.02 -0.01 -0.01 -0.02 c -0.17,0 -0.19,-0.05 -0.26,-0.18 l -0.06,-0.82 2.68,-5.36 h -5.36 l 2.68,5.36 0.06,0.82 -3.36,-6.74 c -0.05,-0.09 -0.05,-0.11 -0.05,-0.12 0,-0.07 0.06,-0.07 0.22,-0.07 h 6.9 c 0.16,0 0.22,0 0.22,0.07 0,0.01 0,0.03 -0.05,0.12 z"
         id="path5121" /><path
         style="fill:#000000;stroke-width:0"
         inkscape:connector-curvature="0"
         d="m 160.53,712.01 h -0.24 c -0.02,-0.16 -0.08,-0.57 -0.18,-0.64 -0.05,-0.04 -0.59,-0.04 -0.68,-0.04 h -1.29 c 0.74,0.65 0.98,0.84 1.4,1.17 0.51,0.41 0.99,0.84 0.99,1.5 0,0.84 -0.74,1.36 -1.63,1.36 -0.86,0 -1.45,-0.61 -1.45,-1.25 0,-0.35 0.3,-0.39 0.37,-0.39 0.17,0 0.37,0.12 0.37,0.37 0,0.13 -0.05,0.37 -0.41,0.37 0.22,0.49 0.69,0.65 1.02,0.65 0.69,0 1.06,-0.54 1.06,-1.11 0,-0.6 -0.43,-1.08 -0.66,-1.33 l -1.68,-1.66 c -0.07,-0.06 -0.07,-0.08 -0.07,-0.27 h 2.87 z"
         id="path5123" /></g>    <g
       ns0:preamble="C:\\Users\\Xianglong Ni\\AppData\\Roaming\\inkscape\\extensions\\default_packages.tex"
       ns0:text="$d^0$"
       word-spacing="normal"
       letter-spacing="normal"
       font-size-adjust="none"
       font-stretch="normal"
       font-weight="normal"
       font-variant="normal"
       font-style="normal"
       stroke-miterlimit="10.433"
       xml:space="preserve"
       transform="matrix(1,0,0,-1,-24.907506,960.04994)"
       id="g5169"
       style="font-style:normal;font-variant:normal;font-weight:normal;font-stretch:normal;letter-spacing:normal;word-spacing:normal;text-anchor:start;fill:#000000;fill-opacity:1;fill-rule:evenodd;stroke:#000000;stroke-linecap:butt;stroke-linejoin:miter;stroke-miterlimit:10.43299961;stroke-dasharray:none;stroke-dashoffset:0;stroke-opacity:1"><path
         id="path5165"
         d="m 153.85,713.91 v 0 0 0 0 0.01 0 0 l -0.01,0.01 v 0 0.01 0 0 0.01 0 0.01 h -0.01 v 0.01 0 l -0.01,0.01 v 0 l -0.01,0.01 v 0 0 0 L 153.8,714 v 0 0 h -0.01 v 0 0.01 h -0.01 v 0 0 h -0.01 v 0 h -0.01 v 0 l -0.01,0.01 v 0 h -0.01 v 0 h -0.01 v 0 h -0.01 v 0 c -0.15,0 -1.1,-0.09 -1.27,-0.11 -0.08,-0.01 -0.14,-0.06 -0.14,-0.19 0,-0.12 0.09,-0.12 0.24,-0.12 0.48,0 0.5,-0.07 0.5,-0.17 l -0.03,-0.2 -0.6,-2.35 c -0.18,0.37 -0.46,0.64 -0.91,0.64 -1.17,0 -2.4,-1.47 -2.4,-2.92 0,-0.93 0.55,-1.58 1.32,-1.58 l 0.02,0.21 c -0.49,0 -0.63,0.55 -0.63,0.94 0,0.49 0.31,1.72 0.54,2.17 0.31,0.59 0.76,0.96 1.16,0.96 0.64,0 0.78,-0.82 0.78,-0.88 0,-0.06 -0.02,-0.12 -0.03,-0.17 l -0.49,-1.94 c -0.05,-0.18 -0.05,-0.2 -0.2,-0.37 -0.44,-0.55 -0.85,-0.71 -1.13,-0.71 l -0.02,-0.21 c 0.2,0 0.7,0.03 1.3,0.74 0.08,-0.42 0.42,-0.74 0.9,-0.74 0.35,0 0.58,0.22 0.74,0.54 0.17,0.36 0.3,0.97 0.3,0.99 0,0.1 -0.09,0.1 -0.12,0.1 -0.1,0 -0.11,-0.05 -0.14,-0.18 -0.17,-0.65 -0.35,-1.24 -0.76,-1.24 -0.27,0 -0.3,0.26 -0.3,0.46 0,0.24 0.02,0.31 0.06,0.48 z"
         inkscape:connector-curvature="0"
         style="fill:#000000;stroke-width:0" /><path
         id="path5167"
         d="m 157.49,712.96 v 0.14 0.14 l -0.01,0.13 -0.01,0.12 -0.01,0.13 -0.01,0.12 -0.02,0.11 -0.02,0.11 -0.03,0.11 -0.03,0.11 -0.03,0.1 -0.04,0.1 -0.04,0.1 -0.05,0.09 -0.05,0.1 -0.03,0.04 -0.03,0.05 c -0.21,0.32 -0.65,0.6 -1.2,0.6 v -0.2 c 0.37,0 0.73,-0.23 0.86,-0.63 0.11,-0.38 0.12,-0.88 0.12,-1.48 0,-0.52 0,-1.03 -0.09,-1.47 -0.14,-0.63 -0.62,-0.78 -0.89,-0.78 v 0 c -0.32,0 -0.75,0.18 -0.89,0.75 -0.1,0.41 -0.1,0.98 -0.1,1.5 0,0.51 0,1.04 0.11,1.42 0.15,0.55 0.59,0.69 0.88,0.69 v 0.2 c -1.62,0 -1.62,-1.9 -1.62,-2.4 0,-0.5 0,-2.36 1.62,-2.36 1.61,0 1.61,1.86 1.61,2.36 z"
         inkscape:connector-curvature="0"
         style="fill:#000000;stroke-width:0" /></g>    <g
       style="font-style:normal;font-variant:normal;font-weight:normal;font-stretch:normal;letter-spacing:normal;word-spacing:normal;text-anchor:start;fill:#000000;fill-opacity:1;fill-rule:evenodd;stroke:#000000;stroke-linecap:butt;stroke-linejoin:miter;stroke-miterlimit:10.43299961;stroke-dasharray:none;stroke-dashoffset:0;stroke-opacity:1"
       ns0:preamble="C:\\Users\\Xianglong Ni\\AppData\\Roaming\\inkscape\\extensions\\default_packages.tex"
       ns0:text="$d^2$"
       word-spacing="normal"
       letter-spacing="normal"
       font-size-adjust="none"
       font-stretch="normal"
       font-weight="normal"
       font-variant="normal"
       font-style="normal"
       stroke-miterlimit="10.433"
       xml:space="preserve"
       transform="matrix(1,0,0,-1,-48.030006,996.61744)"
       id="g5240"><path
         id="path5236"
         style="font-style:normal;font-variant:normal;font-weight:normal;font-stretch:normal;letter-spacing:normal;word-spacing:normal;text-anchor:start;fill:#000000;fill-opacity:1;fill-rule:evenodd;stroke:#000000;stroke-width:0;stroke-linecap:butt;stroke-linejoin:miter;stroke-miterlimit:10.43299961;stroke-dasharray:none;stroke-dashoffset:0;stroke-opacity:1"
         word-spacing="normal"
         stroke-miterlimit="10.433"
         letter-spacing="normal"
         font-weight="normal"
         font-variant="normal"
         font-style="normal"
         font-stretch="normal"
         font-size-adjust="none"
         d="m 153.85,713.91 v 0 0 0 0 0.01 0 0 l -0.01,0.01 v 0 0.01 0 0 0.01 0 0.01 h -0.01 v 0.01 0 l -0.01,0.01 v 0 l -0.01,0.01 v 0 0 0 L 153.8,714 v 0 0 h -0.01 v 0 0.01 h -0.01 v 0 0 h -0.01 v 0 h -0.01 v 0 l -0.01,0.01 v 0 h -0.01 v 0 h -0.01 v 0 h -0.01 v 0 c -0.15,0 -1.1,-0.09 -1.27,-0.11 -0.08,-0.01 -0.14,-0.06 -0.14,-0.19 0,-0.12 0.09,-0.12 0.24,-0.12 0.48,0 0.5,-0.07 0.5,-0.17 l -0.03,-0.2 -0.6,-2.35 c -0.18,0.37 -0.46,0.64 -0.91,0.64 -1.17,0 -2.4,-1.47 -2.4,-2.92 0,-0.93 0.55,-1.58 1.32,-1.58 l 0.02,0.21 c -0.49,0 -0.63,0.55 -0.63,0.94 0,0.49 0.31,1.72 0.54,2.17 0.31,0.59 0.76,0.96 1.16,0.96 0.64,0 0.78,-0.82 0.78,-0.88 0,-0.06 -0.02,-0.12 -0.03,-0.17 l -0.49,-1.94 c -0.05,-0.18 -0.05,-0.2 -0.2,-0.37 -0.44,-0.55 -0.85,-0.71 -1.13,-0.71 l -0.02,-0.21 c 0.2,0 0.7,0.03 1.3,0.74 0.08,-0.42 0.42,-0.74 0.9,-0.74 0.35,0 0.58,0.22 0.74,0.54 0.17,0.36 0.3,0.97 0.3,0.99 0,0.1 -0.09,0.1 -0.12,0.1 -0.1,0 -0.11,-0.05 -0.14,-0.18 -0.17,-0.65 -0.35,-1.24 -0.76,-1.24 -0.27,0 -0.3,0.26 -0.3,0.46 0,0.24 0.02,0.31 0.06,0.48 z"
         inkscape:connector-curvature="0" /><path
         id="path5238"
         style="font-style:normal;font-variant:normal;font-weight:normal;font-stretch:normal;letter-spacing:normal;word-spacing:normal;text-anchor:start;fill:#000000;fill-opacity:1;fill-rule:evenodd;stroke:#000000;stroke-width:0;stroke-linecap:butt;stroke-linejoin:miter;stroke-miterlimit:10.43299961;stroke-dasharray:none;stroke-dashoffset:0;stroke-opacity:1"
         word-spacing="normal"
         stroke-miterlimit="10.433"
         letter-spacing="normal"
         font-weight="normal"
         font-variant="normal"
         font-style="normal"
         font-stretch="normal"
         font-size-adjust="none"
         d="m 157.41,712.01 h -0.23 c -0.02,-0.16 -0.09,-0.57 -0.18,-0.64 -0.06,-0.04 -0.6,-0.04 -0.69,-0.04 h -1.28 c 0.73,0.65 0.97,0.84 1.39,1.17 0.51,0.41 0.99,0.84 0.99,1.5 0,0.84 -0.73,1.36 -1.62,1.36 -0.87,0 -1.45,-0.61 -1.45,-1.25 0,-0.35 0.3,-0.39 0.37,-0.39 0.16,0 0.36,0.12 0.36,0.37 0,0.13 -0.04,0.37 -0.41,0.37 0.22,0.49 0.69,0.65 1.02,0.65 0.7,0 1.06,-0.54 1.06,-1.11 0,-0.6 -0.43,-1.08 -0.65,-1.33 l -1.68,-1.66 c -0.07,-0.06 -0.07,-0.08 -0.07,-0.27 h 2.87 z"
         inkscape:connector-curvature="0" /></g>    <g
       style="font-style:normal;font-variant:normal;font-weight:normal;font-stretch:normal;letter-spacing:normal;word-spacing:normal;text-anchor:start;fill:#000000;fill-opacity:1;fill-rule:evenodd;stroke:#000000;stroke-linecap:butt;stroke-linejoin:miter;stroke-miterlimit:10.43299961;stroke-dasharray:none;stroke-dashoffset:0;stroke-opacity:1"
       ns0:preamble="C:\\Users\\Xianglong Ni\\AppData\\Roaming\\inkscape\\extensions\\default_packages.tex"
       ns0:text="$d^1$"
       word-spacing="normal"
       letter-spacing="normal"
       font-size-adjust="none"
       font-stretch="normal"
       font-weight="normal"
       font-variant="normal"
       font-style="normal"
       stroke-miterlimit="10.433"
       xml:space="preserve"
       transform="matrix(1,0,0,-1,-85.761672,960.04994)"
       id="g5366"><path
         id="path5362"
         style="font-style:normal;font-variant:normal;font-weight:normal;font-stretch:normal;letter-spacing:normal;word-spacing:normal;text-anchor:start;fill:#000000;fill-opacity:1;fill-rule:evenodd;stroke:#000000;stroke-width:0;stroke-linecap:butt;stroke-linejoin:miter;stroke-miterlimit:10.43299961;stroke-dasharray:none;stroke-dashoffset:0;stroke-opacity:1"
         word-spacing="normal"
         stroke-miterlimit="10.433"
         letter-spacing="normal"
         font-weight="normal"
         font-variant="normal"
         font-style="normal"
         font-stretch="normal"
         font-size-adjust="none"
         d="m 153.85,713.91 v 0 0 0 0 0.01 0 0 l -0.01,0.01 v 0 0.01 0 0 0.01 0 0.01 h -0.01 v 0.01 0 l -0.01,0.01 v 0 l -0.01,0.01 v 0 0 0 L 153.8,714 v 0 0 h -0.01 v 0 0.01 h -0.01 v 0 0 h -0.01 v 0 h -0.01 v 0 l -0.01,0.01 v 0 h -0.01 v 0 h -0.01 v 0 h -0.01 v 0 c -0.15,0 -1.1,-0.09 -1.27,-0.11 -0.08,-0.01 -0.14,-0.06 -0.14,-0.19 0,-0.12 0.09,-0.12 0.24,-0.12 0.48,0 0.5,-0.07 0.5,-0.17 l -0.03,-0.2 -0.6,-2.35 c -0.18,0.37 -0.46,0.64 -0.91,0.64 -1.17,0 -2.4,-1.47 -2.4,-2.92 0,-0.93 0.55,-1.58 1.32,-1.58 l 0.02,0.21 c -0.49,0 -0.63,0.55 -0.63,0.94 0,0.49 0.31,1.72 0.54,2.17 0.31,0.59 0.76,0.96 1.16,0.96 0.64,0 0.78,-0.82 0.78,-0.88 0,-0.06 -0.02,-0.12 -0.03,-0.17 l -0.49,-1.94 c -0.05,-0.18 -0.05,-0.2 -0.2,-0.37 -0.44,-0.55 -0.85,-0.71 -1.13,-0.71 l -0.02,-0.21 c 0.2,0 0.7,0.03 1.3,0.74 0.08,-0.42 0.42,-0.74 0.9,-0.74 0.35,0 0.58,0.22 0.74,0.54 0.17,0.36 0.3,0.97 0.3,0.99 0,0.1 -0.09,0.1 -0.12,0.1 -0.1,0 -0.11,-0.05 -0.14,-0.18 -0.17,-0.65 -0.35,-1.24 -0.76,-1.24 -0.27,0 -0.3,0.26 -0.3,0.46 0,0.24 0.02,0.31 0.06,0.48 z"
         inkscape:connector-curvature="0" /><path
         id="path5364"
         style="font-style:normal;font-variant:normal;font-weight:normal;font-stretch:normal;letter-spacing:normal;word-spacing:normal;text-anchor:start;fill:#000000;fill-opacity:1;fill-rule:evenodd;stroke:#000000;stroke-width:0;stroke-linecap:butt;stroke-linejoin:miter;stroke-miterlimit:10.43299961;stroke-dasharray:none;stroke-dashoffset:0;stroke-opacity:1"
         word-spacing="normal"
         stroke-miterlimit="10.433"
         letter-spacing="normal"
         font-weight="normal"
         font-variant="normal"
         font-style="normal"
         font-stretch="normal"
         font-size-adjust="none"
         d="m 156.23,715.16 v 0.01 0.01 0.01 0.01 0 0.01 0.01 0.01 0 0.01 0 0.01 0.01 0 0.01 0 l -0.01,0.01 v 0 0.01 0.01 0.01 h -0.01 v 0.01 l -0.01,0.01 v 0 h -0.01 v 0.01 h -0.01 -0.01 v 0.01 h -0.01 -0.01 -0.01 v 0 h -0.01 v 0 h -0.01 l -0.01,0.01 v 0 h -0.01 -0.01 v 0 h -0.01 -0.01 -0.01 v 0 h -0.01 -0.01 -0.01 -0.01 c -0.44,-0.44 -1.08,-0.45 -1.36,-0.45 v -0.25 c 0.16,0 0.62,0 1.01,0.2 v -3.55 c 0,-0.23 0,-0.32 -0.7,-0.32 h -0.26 v -0.25 c 0.12,0.01 0.98,0.03 1.24,0.03 0.21,0 1.09,-0.02 1.24,-0.03 v 0.25 h -0.26 c -0.7,0 -0.7,0.09 -0.7,0.32 z"
         inkscape:connector-curvature="0" /></g>    <path
       style="opacity:1;vector-effect:none;fill:none;fill-opacity:1;stroke:#000000;stroke-width:0.30000001;stroke-linecap:butt;stroke-linejoin:miter;stroke-miterlimit:4;stroke-dasharray:none;stroke-dashoffset:0;stroke-opacity:1;marker-end:url(#marker6090)"
       d="M 98.408333,291.50328 V 278.27411"
       id="path5866"
       inkscape:connector-curvature="0" />
    <path
       style="opacity:1;vector-effect:none;fill:none;fill-opacity:1;stroke:#000000;stroke-width:0.31464264;stroke-linecap:butt;stroke-linejoin:miter;stroke-miterlimit:4;stroke-dasharray:none;stroke-dashoffset:0;stroke-opacity:1"
       d="M 69.304163,296.79494 H 127.51249"
       id="path6418"
       inkscape:connector-curvature="0" />
    <path
       style="opacity:1;vector-effect:none;fill:none;fill-opacity:1;stroke:#000000;stroke-width:0.30000001;stroke-linecap:butt;stroke-linejoin:miter;stroke-miterlimit:4;stroke-dasharray:none;stroke-dashoffset:0;stroke-opacity:1;marker-end:url(#marker6090-1)"
       d="m 130.15833,238.58661 -11.4568,6.61458"
       id="path5866-9"
       inkscape:connector-curvature="0" />
    <path
       style="opacity:1;vector-effect:none;fill:none;fill-opacity:1;stroke:#000000;stroke-width:0.31464264;stroke-linecap:butt;stroke-linejoin:miter;stroke-miterlimit:4;stroke-dasharray:none;stroke-dashoffset:0;stroke-opacity:1"
       d="M 149.29313,261.14573 120.18896,210.73584"
       id="path6418-3"
       inkscape:connector-curvature="0" />
    <path
       style="opacity:1;vector-effect:none;fill:none;fill-opacity:1;stroke:#000000;stroke-width:0.30000001;stroke-linecap:butt;stroke-linejoin:miter;stroke-miterlimit:4;stroke-dasharray:none;stroke-dashoffset:0;stroke-opacity:1;marker-end:url(#marker6090-92)"
       d="m 66.658333,238.58661 11.4568,6.61458"
       id="path5866-8"
       inkscape:connector-curvature="0" />
    <path
       style="opacity:1;vector-effect:none;fill:none;fill-opacity:1;stroke:#000000;stroke-width:0.31464264;stroke-linecap:butt;stroke-linejoin:miter;stroke-miterlimit:4;stroke-dasharray:none;stroke-dashoffset:0;stroke-opacity:1"
       d="M 76.627713,210.73583 47.52354,261.14572"
       id="path6418-2"
       inkscape:connector-curvature="0" />
    <text
       xml:space="preserve"
       style="font-style:normal;font-variant:normal;font-weight:normal;font-stretch:normal;font-size:17.19791591%;line-height:125%;font-family:'Latin Modern Math';-inkscape-font-specification:'Latin Modern Math, Normal';font-variant-ligatures:normal;font-variant-caps:normal;font-variant-numeric:normal;text-align:start;letter-spacing:0px;word-spacing:0px;writing-mode:lr-tb;baseline-shift:super;text-anchor:start;fill:#000000;fill-opacity:1;stroke:none;stroke-width:0.26458332px;stroke-linecap:butt;stroke-linejoin:miter;stroke-opacity:1"
       x="98.408325"
       y="217.41995"
       id="text9676"><tspan
         sodipodi:role="line"
         id="tspan9674"
         x="98.408325"
         y="217.41995"
         style="font-size:17.19791591%;baseline-shift:super;stroke-width:0.26458332px">11</tspan></text>
    <text
       xml:space="preserve"
       style="font-style:normal;font-variant:normal;font-weight:normal;font-stretch:normal;line-height:125%;font-family:'Latin Modern Math';-inkscape-font-specification:'Latin Modern Math, Normal';font-variant-ligatures:normal;font-variant-caps:normal;font-variant-numeric:normal;text-align:start;letter-spacing:0px;word-spacing:0px;writing-mode:lr-tb;baseline-shift:baseline;text-anchor:start;fill:#000000;fill-opacity:1;stroke:none;stroke-width:0.26458332px;stroke-linecap:butt;stroke-linejoin:miter;stroke-opacity:1"
       x="95.762497"
       y="214.77411"
       id="text9680"><tspan
         sodipodi:role="line"
         id="tspan9678"
         x="95.762497"
         y="225.94611" /></text>
    <text
       xml:space="preserve"
       style="font-style:normal;font-variant:normal;font-weight:normal;font-stretch:normal;font-size:10.58333302px;line-height:125%;font-family:'Latin Modern Math';-inkscape-font-specification:'Latin Modern Math, Normal';font-variant-ligatures:normal;font-variant-caps:normal;font-variant-numeric:normal;text-align:start;letter-spacing:0px;word-spacing:0px;writing-mode:lr-tb;text-anchor:start;fill:#000000;fill-opacity:1;stroke:none;stroke-width:0.26458332px;stroke-linecap:butt;stroke-linejoin:miter;stroke-opacity:1"
       x="98.408325"
       y="212.12828"
       id="text9686"><tspan
         sodipodi:role="line"
         id="tspan9684"
         x="98.408325"
         y="221.98137"
         style="stroke-width:0.26458332px" /></text>
    <text
       xml:space="preserve"
       style="font-style:normal;font-variant:normal;font-weight:normal;font-stretch:normal;font-size:10.58333302px;line-height:125%;font-family:'Latin Modern Math';-inkscape-font-specification:'Latin Modern Math, Normal';font-variant-ligatures:normal;font-variant-caps:normal;font-variant-numeric:normal;text-align:start;letter-spacing:0px;word-spacing:0px;writing-mode:lr-tb;text-anchor:start;fill:#000000;fill-opacity:1;stroke:none;stroke-width:0.26458332px;stroke-linecap:butt;stroke-linejoin:miter;stroke-opacity:1"
       x="95.76944"
       y="220.1908"
       id="text9702"><tspan
         sodipodi:role="line"
         id="tspan9700"
         x="95.76944"
         y="220.1908"
         style="stroke-width:0.26458332px">2</tspan></text>
    <text
       xml:space="preserve"
       style="font-style:normal;font-variant:normal;font-weight:normal;font-stretch:normal;font-size:10.58333302px;line-height:125%;font-family:'Latin Modern Math';-inkscape-font-specification:'Latin Modern Math, Normal';font-variant-ligatures:normal;font-variant-caps:normal;font-variant-numeric:normal;text-align:start;letter-spacing:0px;word-spacing:0px;writing-mode:lr-tb;text-anchor:start;fill:#000000;fill-opacity:1;stroke:none;stroke-width:0.26458332px;stroke-linecap:butt;stroke-linejoin:miter;stroke-opacity:1"
       x="61.095825"
       y="278.68384"
       id="text9706"><tspan
         sodipodi:role="line"
         id="tspan9704"
         x="61.095825"
         y="278.68384"
         style="stroke-width:0.26458332px">0</tspan></text>
    <text
       xml:space="preserve"
       style="font-style:normal;font-variant:normal;font-weight:normal;font-stretch:normal;font-size:10.58333302px;line-height:125%;font-family:'Latin Modern Math';-inkscape-font-specification:'Latin Modern Math, Normal';font-variant-ligatures:normal;font-variant-caps:normal;font-variant-numeric:normal;text-align:start;letter-spacing:0px;word-spacing:0px;writing-mode:lr-tb;text-anchor:start;fill:#000000;fill-opacity:1;stroke:none;stroke-width:0.26458332px;stroke-linecap:butt;stroke-linejoin:miter;stroke-opacity:1"
       x="129.3736"
       y="278.53104"
       id="text9710"><tspan
         sodipodi:role="line"
         id="tspan9708"
         x="129.3736"
         y="278.53104"
         style="stroke-width:0.26458332px">1</tspan></text>
    <text
       xml:space="preserve"
       style="font-style:normal;font-variant:normal;font-weight:normal;font-stretch:normal;font-size:10.58333302px;line-height:125%;font-family:'Latin Modern Math';-inkscape-font-specification:'Latin Modern Math, Normal';font-variant-ligatures:normal;font-variant-caps:normal;font-variant-numeric:normal;text-align:start;letter-spacing:0px;word-spacing:0px;writing-mode:lr-tb;text-anchor:start;fill:#000000;fill-opacity:1;stroke:none;stroke-width:0.26458332px;stroke-linecap:butt;stroke-linejoin:miter;stroke-opacity:1"
       x="152.1236"
       y="261.87134"
       id="text9714"><tspan
         sodipodi:role="line"
         id="tspan9712"
         x="152.1236"
         y="261.87134"
         style="stroke-width:0.26458332px">0</tspan></text>
    <text
       xml:space="preserve"
       style="font-style:normal;font-variant:normal;font-weight:normal;font-stretch:normal;font-size:10.58333302px;line-height:125%;font-family:'Latin Modern Math';-inkscape-font-specification:'Latin Modern Math, Normal';font-variant-ligatures:normal;font-variant-caps:normal;font-variant-numeric:normal;text-align:start;letter-spacing:0px;word-spacing:0px;writing-mode:lr-tb;text-anchor:start;fill:#000000;fill-opacity:1;stroke:none;stroke-width:0.26458332px;stroke-linecap:butt;stroke-linejoin:miter;stroke-opacity:1"
       x="122.88748"
       y="209.74634"
       id="text9718"><tspan
         sodipodi:role="line"
         id="tspan9716"
         x="122.88748"
         y="209.74634"
         style="stroke-width:0.26458332px">1</tspan></text>
    <text
       xml:space="preserve"
       style="font-style:normal;font-variant:normal;font-weight:normal;font-stretch:normal;font-size:10.58333302px;line-height:125%;font-family:'Latin Modern Math';-inkscape-font-specification:'Latin Modern Math, Normal';font-variant-ligatures:normal;font-variant-caps:normal;font-variant-numeric:normal;text-align:start;letter-spacing:0px;word-spacing:0px;writing-mode:lr-tb;text-anchor:start;fill:#000000;fill-opacity:1;stroke:none;stroke-width:0.26458332px;stroke-linecap:butt;stroke-linejoin:miter;stroke-opacity:1"
       x="39.422203"
       y="261.73245"
       id="text9722"><tspan
         sodipodi:role="line"
         id="tspan9720"
         x="39.422203"
         y="261.73245"
         style="stroke-width:0.26458332px">0</tspan></text>
    <text
       xml:space="preserve"
       style="font-style:normal;font-variant:normal;font-weight:normal;font-stretch:normal;font-size:10.58333302px;line-height:125%;font-family:'Latin Modern Math';-inkscape-font-specification:'Latin Modern Math, Normal';font-variant-ligatures:normal;font-variant-caps:normal;font-variant-numeric:normal;text-align:start;letter-spacing:0px;word-spacing:0px;writing-mode:lr-tb;text-anchor:start;fill:#000000;fill-opacity:1;stroke:none;stroke-width:0.26458332px;stroke-linecap:butt;stroke-linejoin:miter;stroke-opacity:1"
       x="69.449989"
       y="209.46855"
       id="text9726"><tspan
         sodipodi:role="line"
         id="tspan9724"
         x="69.449989"
         y="209.46855"
         style="stroke-width:0.26458332px">1</tspan></text>
    <text
       xml:space="preserve"
       style="font-style:normal;font-variant:normal;font-weight:normal;font-stretch:normal;font-size:10.58333302px;line-height:125%;font-family:'Latin Modern Math';-inkscape-font-specification:'Latin Modern Math, Normal';font-variant-ligatures:normal;font-variant-caps:normal;font-variant-numeric:normal;text-align:start;letter-spacing:0px;word-spacing:0px;writing-mode:lr-tb;text-anchor:start;fill:#000000;fill-opacity:1;stroke:none;stroke-width:0.26458332px;stroke-linecap:butt;stroke-linejoin:miter;stroke-opacity:1"
       x="66.790276"
       y="307.49634"
       id="text9730"><tspan
         sodipodi:role="line"
         id="tspan9728"
         x="66.790276"
         y="307.49634"
         style="stroke-width:0.26458332px">0</tspan></text>
    <text
       xml:space="preserve"
       style="font-style:normal;font-variant:normal;font-weight:normal;font-stretch:normal;font-size:10.58333302px;line-height:125%;font-family:'Latin Modern Math';-inkscape-font-specification:'Latin Modern Math, Normal';font-variant-ligatures:normal;font-variant-caps:normal;font-variant-numeric:normal;text-align:start;letter-spacing:0px;word-spacing:0px;writing-mode:lr-tb;text-anchor:start;fill:#000000;fill-opacity:1;stroke:none;stroke-width:0.26458332px;stroke-linecap:butt;stroke-linejoin:miter;stroke-opacity:1"
       x="124.35971"
       y="307.62131"
       id="text9734"><tspan
         sodipodi:role="line"
         id="tspan9732"
         x="124.35971"
         y="307.62131"
         style="stroke-width:0.26458332px">1</tspan></text>
  </g>
  <g
     inkscape:groupmode="layer"
     id="layer3"
     inkscape:label="Text Layer"
     transform="translate(-39.834953,-105.42005)" />
</svg>
