<?xml version="1.0" encoding="UTF-8" standalone="no"?>
<!-- Created with Inkscape (http://www.inkscape.org/) -->

<svg
   xmlns:ns0="http://www.iki.fi/pav/software/textext/"
   xmlns:dc="http://purl.org/dc/elements/1.1/"
   xmlns:cc="http://creativecommons.org/ns#"
   xmlns:rdf="http://www.w3.org/1999/02/22-rdf-syntax-ns#"
   xmlns:svg="http://www.w3.org/2000/svg"
   xmlns="http://www.w3.org/2000/svg"
   xmlns:sodipodi="http://sodipodi.sourceforge.net/DTD/sodipodi-0.dtd"
   xmlns:inkscape="http://www.inkscape.org/namespaces/inkscape"
   width="96.115486mm"
   height="84.702087mm"
   viewBox="0 0 96.115497 84.702069"
   version="1.1"
   id="svg3772"
   inkscape:version="0.92.1 r15371"
   sodipodi:docname="10A Brouwer FPT.svg">
  <sodipodi:namedview
     objecttolerance="3"
     guidetolerance="10000"
     gridtolerance="3"
     id="base"
     pagecolor="#ffffff"
     bordercolor="#666666"
     borderopacity="1.0"
     inkscape:pageopacity="0.0"
     inkscape:pageshadow="2"
     inkscape:zoom="1"
     inkscape:cx="-106.69918"
     inkscape:cy="124.80099"
     inkscape:document-units="mm"
     showgrid="true"
     inkscape:window-width="1920"
     inkscape:window-height="1027"
     inkscape:window-x="-8"
     inkscape:window-y="1163"
     inkscape:window-maximized="1"
     inkscape:current-layer="layer2">
    <inkscape:grid
       dotted="false"
       originy="174.74315"
       originx="527.78558"
       spacingy="2.6458333"
       spacingx="2.6458333"
       id="grid3808"
       type="xygrid" />
  </sodipodi:namedview>
  <defs
     id="defs3766">
    <marker
       inkscape:isstock="true"
       style="overflow:visible"
       id="marker5611"
       refX="0"
       refY="0"
       orient="auto"
       inkscape:stockid="Arrow1Lend">
      <path
         inkscape:connector-curvature="0"
         transform="matrix(-0.8,0,0,-0.8,-10,0)"
         style="fill:#000000;fill-opacity:1;fill-rule:evenodd;stroke:#000000;stroke-width:1.00000003pt;stroke-opacity:1"
         d="M 0,0 5,-5 -12.5,0 5,5 Z"
         id="path5609" />
    </marker>
    <marker
       inkscape:isstock="true"
       orient="auto"
       refY="0"
       refX="0"
       id="InfiniteLineEnd"
       inkscape:stockid="InfiniteLineEnd"
       style="overflow:visible">
      <g
         style="fill:#000000;fill-opacity:1;stroke:#000000;stroke-opacity:1"
         id="g5633">
        <circle
           style="fill:#000000;fill-opacity:1;stroke:#000000;stroke-opacity:1"
           cx="3"
           cy="0"
           r="0.80000001"
           id="circle5627" />
        <circle
           style="fill:#000000;fill-opacity:1;stroke:#000000;stroke-opacity:1"
           cx="6.5"
           cy="0"
           r="0.80000001"
           id="circle5629" />
        <circle
           style="fill:#000000;fill-opacity:1;stroke:#000000;stroke-opacity:1"
           cx="10"
           cy="0"
           r="0.80000001"
           id="circle5631" />
      </g>
    </marker>
    <marker
       inkscape:isstock="true"
       inkscape:stockid="DistanceStart"
       orient="auto"
       refY="0"
       refX="0"
       id="DistanceStart"
       style="overflow:visible">
      <g
         style="fill:#000000;fill-opacity:1;stroke:#000000;stroke-opacity:1"
         id="g2300">
        <path
           inkscape:connector-curvature="0"
           id="path2306"
           d="M 0,0 H 2"
           style="fill:#000000;fill-opacity:1;stroke:#000000;stroke-width:1.14999998;stroke-linecap:square;stroke-opacity:1" />
        <path
           inkscape:connector-curvature="0"
           id="path2302"
           d="M 0,0 13,4 9,0 13,-4 Z"
           style="fill:#000000;fill-opacity:1;fill-rule:evenodd;stroke:#000000;stroke-opacity:1" />
        <path
           inkscape:connector-curvature="0"
           id="path2304"
           d="M 0,-4 V 40"
           style="fill:#000000;fill-opacity:1;stroke:#000000;stroke-width:1;stroke-linecap:square;stroke-opacity:1" />
      </g>
    </marker>
    <inkscape:perspective
       id="perspective9742"
       inkscape:persp3d-origin="219.24895 : -32.082953 : 1"
       inkscape:vp_z="277.82744 : -14.531432 : 1"
       inkscape:vp_y="0 : 1000 : 0"
       inkscape:vp_x="160.67045 : -14.531432 : 1"
       sodipodi:type="inkscape:persp3d" />
    <marker
       inkscape:isstock="true"
       style="overflow:visible"
       id="marker6050"
       refX="0"
       refY="0"
       orient="auto"
       inkscape:stockid="Arrow2Lend">
      <path
         inkscape:connector-curvature="0"
         transform="matrix(-1.1,0,0,-1.1,-1.1,0)"
         d="M 8.7185878,4.0337352 -2.2072895,0.01601326 8.7185884,-4.0017078 c -1.7454984,2.3720609 -1.7354408,5.6174519 -6e-7,8.035443 z"
         style="fill:#000000;fill-opacity:1;fill-rule:evenodd;stroke:#000000;stroke-width:0.625;stroke-linejoin:round;stroke-opacity:1"
         id="path6048" />
    </marker>
    <marker
       inkscape:isstock="true"
       style="overflow:visible"
       id="marker6012"
       refX="0"
       refY="0"
       orient="auto"
       inkscape:stockid="Arrow1Lend">
      <path
         inkscape:connector-curvature="0"
         transform="matrix(-0.8,0,0,-0.8,-10,0)"
         style="fill:#000000;fill-opacity:1;fill-rule:evenodd;stroke:#000000;stroke-width:1.00000003pt;stroke-opacity:1"
         d="M 0,0 5,-5 -12.5,0 5,5 Z"
         id="path6010" />
    </marker>
    <marker
       inkscape:isstock="true"
       style="overflow:visible"
       id="Tail"
       refX="0"
       refY="0"
       orient="auto"
       inkscape:stockid="Tail">
      <g
         style="fill:#000000;fill-opacity:1;stroke:#000000;stroke-opacity:1"
         transform="scale(-1.2)"
         id="g5440">
        <path
           inkscape:connector-curvature="0"
           style="fill:#000000;fill-opacity:1;fill-rule:evenodd;stroke:#000000;stroke-width:0.80000001;stroke-linecap:round;stroke-opacity:1"
           d="M -3.8048674,-3.9585227 0.54352094,0"
           id="path5428" />
        <path
           inkscape:connector-curvature="0"
           style="fill:#000000;fill-opacity:1;fill-rule:evenodd;stroke:#000000;stroke-width:0.80000001;stroke-linecap:round;stroke-opacity:1"
           d="M -1.2866832,-3.9585227 3.0617053,0"
           id="path5430" />
        <path
           inkscape:connector-curvature="0"
           style="fill:#000000;fill-opacity:1;fill-rule:evenodd;stroke:#000000;stroke-width:0.80000001;stroke-linecap:round;stroke-opacity:1"
           d="M 1.3053582,-3.9585227 5.6537466,0"
           id="path5432" />
        <path
           inkscape:connector-curvature="0"
           style="fill:#000000;fill-opacity:1;fill-rule:evenodd;stroke:#000000;stroke-width:0.80000001;stroke-linecap:round;stroke-opacity:1"
           d="M -3.8048674,4.1775838 0.54352094,0.21974226"
           id="path5434" />
        <path
           inkscape:connector-curvature="0"
           style="fill:#000000;fill-opacity:1;fill-rule:evenodd;stroke:#000000;stroke-width:0.80000001;stroke-linecap:round;stroke-opacity:1"
           d="M -1.2866832,4.1775838 3.0617053,0.21974226"
           id="path5436" />
        <path
           inkscape:connector-curvature="0"
           style="fill:#000000;fill-opacity:1;fill-rule:evenodd;stroke:#000000;stroke-width:0.80000001;stroke-linecap:round;stroke-opacity:1"
           d="M 1.3053582,4.1775838 5.6537466,0.21974226"
           id="path5438" />
      </g>
    </marker>
    <marker
       inkscape:isstock="true"
       style="overflow:visible"
       id="Scissors"
       refX="0"
       refY="0"
       orient="auto"
       inkscape:stockid="Scissors">
      <path
         inkscape:connector-curvature="0"
         style="fill:#000000;fill-opacity:1;stroke:#000000;stroke-opacity:1"
         d="M 9.0898857,-3.6061018 C 8.1198849,-4.7769976 6.3697607,-4.7358294 5.0623558,-4.2327734 l -8.2124046,3.0779029 c -2.3882933,-1.3067135 -4.7482873,-0.9325372 -4.7482873,-1.5687873 0,-0.4973164 0.4566662,-0.3883222 0.3883068,-1.6831941 -0.065635,-1.2432767 -1.3635771,-2.1630796 -2.5903987,-2.0816435 -1.227271,-0.00735 -2.499439,0.9331613 -2.510341,2.2300611 -0.09143,1.3063864 1.007209,2.5196896 2.306764,2.6052316 1.5223406,0.2266616 4.218258,-0.6955566 5.482945,1.57086006 -0.9422847,1.73825774 -2.6140244,1.74307674 -4.1255107,1.65607034 -1.2548743,-0.072235 -2.7620933,0.2873979 -3.3606483,1.5208605 -0.578367,1.1820862 -0.0112,2.8646022 1.316749,3.226412 1.3401912,0.4918277 3.1806689,-0.129711 3.4993722,-1.6707242 0.2456585,-1.187823 -0.5953659,-1.7459574 -0.2725074,-2.1771537 0.2436135,-0.32536 1.7907806,-0.1368452 4.5471053,-1.3748244 L 5.6763468,4.2330688 C 6.8000164,4.5467672 8.1730685,4.5362646 9.1684433,3.4313614 l -9.22008423,-3.48508362 z m -18.3078016,-1.900504 c 1.294559,0.7227998 1.1888392,2.6835702 -0.1564272,3.0632889 -1.2165179,0.423661 -2.7710269,-0.7589694 -2.3831779,-2.0774648 0.227148,-1.0818519 1.653387,-1.480632 2.5396051,-0.9858241 z m 0.056264,8.0173649 c 1.3508301,0.4988648 1.1214429,2.7844356 -0.2522207,3.091609 -0.9110594,0.3163391 -2.2135494,-0.1387976 -2.3056964,-1.2121394 -0.177609,-1.305055 1.356085,-2.4841482 2.5579171,-1.8794696 z"
         id="schere" />
    </marker>
    <marker
       inkscape:isstock="true"
       style="overflow:visible"
       id="Arrow2Lend"
       refX="0"
       refY="0"
       orient="auto"
       inkscape:stockid="Arrow2Lend">
      <path
         inkscape:connector-curvature="0"
         transform="matrix(-1.1,0,0,-1.1,-1.1,0)"
         d="M 8.7185878,4.0337352 -2.2072895,0.01601326 8.7185884,-4.0017078 c -1.7454984,2.3720609 -1.7354408,5.6174519 -6e-7,8.035443 z"
         style="fill:#000000;fill-opacity:1;fill-rule:evenodd;stroke:#000000;stroke-width:0.625;stroke-linejoin:round;stroke-opacity:1"
         id="path5413" />
    </marker>
    <marker
       inkscape:isstock="true"
       style="overflow:visible"
       id="marker5904"
       refX="0"
       refY="0"
       orient="auto"
       inkscape:stockid="Arrow1Lend">
      <path
         inkscape:connector-curvature="0"
         transform="matrix(-0.8,0,0,-0.8,-10,0)"
         style="fill:#000000;fill-opacity:1;fill-rule:evenodd;stroke:#000000;stroke-width:1.00000003pt;stroke-opacity:1"
         d="M 0,0 5,-5 -12.5,0 5,5 Z"
         id="path5902" />
    </marker>
    <marker
       inkscape:isstock="true"
       style="overflow:visible"
       id="Arrow1Lstart"
       refX="0"
       refY="0"
       orient="auto"
       inkscape:stockid="Arrow1Lstart">
      <path
         inkscape:connector-curvature="0"
         transform="matrix(0.8,0,0,0.8,10,0)"
         style="fill:#000000;fill-opacity:1;fill-rule:evenodd;stroke:#000000;stroke-width:1.00000003pt;stroke-opacity:1"
         d="M 0,0 5,-5 -12.5,0 5,5 Z"
         id="path5392" />
    </marker>
    <marker
       inkscape:isstock="true"
       style="overflow:visible"
       id="Arrow1Mend"
       refX="0"
       refY="0"
       orient="auto"
       inkscape:stockid="Arrow1Mend">
      <path
         inkscape:connector-curvature="0"
         transform="matrix(-0.4,0,0,-0.4,-4,0)"
         style="fill:#000000;fill-opacity:1;fill-rule:evenodd;stroke:#000000;stroke-width:1.00000003pt;stroke-opacity:1"
         d="M 0,0 5,-5 -12.5,0 5,5 Z"
         id="path5401" />
    </marker>
    <marker
       inkscape:isstock="true"
       style="overflow:visible"
       id="Arrow1Lend"
       refX="0"
       refY="0"
       orient="auto"
       inkscape:stockid="Arrow1Lend">
      <path
         inkscape:connector-curvature="0"
         transform="matrix(-0.8,0,0,-0.8,-10,0)"
         style="fill:#000000;fill-opacity:1;fill-rule:evenodd;stroke:#000000;stroke-width:1.00000003pt;stroke-opacity:1"
         d="M 0,0 5,-5 -12.5,0 5,5 Z"
         id="path5395" />
    </marker>
    <marker
       inkscape:isstock="true"
       style="overflow:visible"
       id="marker6090-9"
       refX="0"
       refY="0"
       orient="auto"
       inkscape:stockid="Arrow1Lend">
      <path
         transform="matrix(-0.8,0,0,-0.8,-10,0)"
         style="fill:#000000;fill-opacity:1;fill-rule:evenodd;stroke:#000000;stroke-width:1.00000003pt;stroke-opacity:1"
         d="M 0,0 5,-5 -12.5,0 5,5 Z"
         id="path6088-2"
         inkscape:connector-curvature="0" />
    </marker>
    <marker
       inkscape:isstock="true"
       style="overflow:visible"
       id="marker6090-1"
       refX="0"
       refY="0"
       orient="auto"
       inkscape:stockid="Arrow1Lend">
      <path
         transform="matrix(-0.8,0,0,-0.8,-10,0)"
         style="fill:#000000;fill-opacity:1;fill-rule:evenodd;stroke:#000000;stroke-width:1.00000003pt;stroke-opacity:1"
         d="M 0,0 5,-5 -12.5,0 5,5 Z"
         id="path6088-4"
         inkscape:connector-curvature="0" />
    </marker>
    <marker
       inkscape:isstock="true"
       style="overflow:visible"
       id="marker6090-92"
       refX="0"
       refY="0"
       orient="auto"
       inkscape:stockid="Arrow1Lend">
      <path
         transform="matrix(-0.8,0,0,-0.8,-10,0)"
         style="fill:#000000;fill-opacity:1;fill-rule:evenodd;stroke:#000000;stroke-width:1.00000003pt;stroke-opacity:1"
         d="M 0,0 5,-5 -12.5,0 5,5 Z"
         id="path6088-5"
         inkscape:connector-curvature="0" />
    </marker>
  </defs>
  <metadata
     id="metadata3769">
    <rdf:RDF>
      <cc:Work
         rdf:about="">
        <dc:format>image/svg+xml</dc:format>
        <dc:type
           rdf:resource="http://purl.org/dc/dcmitype/StillImage" />
        <dc:title />
      </cc:Work>
    </rdf:RDF>
  </metadata>
  <g
     inkscape:label="Fill"
     id="layer1"
     inkscape:groupmode="layer"
     transform="translate(-2.9554653e-6)">
    <circle
       transform="translate(296.44803,-86.831408)"
       r="42.201042"
       cy="129.18245"
       cx="-254.09698"
       id="path7755"
       style="display:inline;fill:none;fill-opacity:0.11764706;stroke:#000000;stroke-width:0.30000001;stroke-miterlimit:4;stroke-dasharray:none;stroke-dashoffset:0;stroke-opacity:1" />
    <path
       style="opacity:1;vector-effect:none;fill:#000000;fill-opacity:0.04020099;stroke:#000000;stroke-width:0;stroke-linecap:butt;stroke-linejoin:miter;stroke-miterlimit:4;stroke-dasharray:none;stroke-dashoffset:0;stroke-opacity:1"
       d="M 145.15063,317.84662 C 125.75364,315.97874 107.54678,310.73224 89.60082,301.83934 73.764779,293.99199 60.982644,284.76844 48.123954,271.90975 20.827623,244.61341 5.0815209,210.33913 2.2254496,172.00322 -0.44556712,136.15123 8.6774029,101.44251 28.632068,71.538147 47.370391,43.456612 78.401961,19.904023 110.31008,9.5455145 c 18.18579,-5.9037513 26.64834,-7.1126309 49.79074,-7.1126309 24.11576,0 32.7331,1.3417767 52.25262,8.1360774 55.60982,19.35651 95.92178,68.342438 104.70354,127.232719 1.64276,11.01631 1.37163,35.33076 -0.52715,47.27399 -9.25144,58.19096 -50.51736,106.7536 -106.42901,125.24796 -12.96108,4.28724 -22.26656,6.21589 -36.5,7.56497 -12.18969,1.15537 -16.07589,1.14964 -28.45019,-0.042 z"
       id="path4686"
       inkscape:connector-curvature="0"
       transform="matrix(0.26458333,0,0,0.26458333,2.9554653e-6,0)" />
  </g>
  <g
     transform="translate(296.44803,-86.831407)"
     inkscape:groupmode="layer"
     id="layer2"
     inkscape:label="Layer 1"
     style="display:inline">
    <path
       inkscape:connector-curvature="0"
       id="path7761"
       d="m -277.50444,129.52311 57.22598,-24.97136"
       style="opacity:1;vector-effect:none;fill:none;fill-opacity:1;stroke:#000000;stroke-width:0.2;stroke-linecap:butt;stroke-linejoin:miter;stroke-miterlimit:4;stroke-dasharray:none;stroke-dashoffset:0;stroke-opacity:1;marker-end:url(#marker5611)" />
    <g
       ns0:preamble="C:\\Users\\Xianglong Ni\\AppData\\Roaming\\inkscape\\extensions\\default_packages.tex"
       ns0:text="$x$"
       word-spacing="normal"
       letter-spacing="normal"
       font-size-adjust="none"
       font-stretch="normal"
       font-weight="normal"
       font-variant="normal"
       font-style="normal"
       stroke-miterlimit="10.433"
       xml:space="preserve"
       transform="matrix(1,0,0,-1,-392.61078,829.79868)"
       id="content"
       style="font-style:normal;font-variant:normal;font-weight:normal;font-stretch:normal;letter-spacing:normal;word-spacing:normal;text-anchor:start;fill:#000000;fill-opacity:1;fill-rule:evenodd;stroke:#000000;stroke-linecap:butt;stroke-linejoin:miter;stroke-miterlimit:10.43299961;stroke-dasharray:none;stroke-dashoffset:0;stroke-opacity:1"><path
         id="path7837"
         d="m 152.04,710.13 v 0.02 l 0.01,0.03 0.01,0.03 0.01,0.04 0.01,0.04 0.01,0.04 0.01,0.04 0.02,0.05 0.01,0.04 0.02,0.05 0.02,0.05 0.02,0.05 0.02,0.05 0.03,0.05 0.02,0.05 0.03,0.05 0.03,0.05 0.03,0.04 0.03,0.05 0.04,0.04 0.04,0.05 0.04,0.04 0.04,0.04 0.04,0.03 0.05,0.03 0.05,0.03 0.02,0.01 0.03,0.02 0.02,0.01 0.03,0.01 0.03,0.01 h 0.03 l 0.03,0.01 0.02,0.01 h 0.04 0.03 l 0.03,0.01 h 0.03 c 0.05,0 0.29,0 0.5,-0.13 -0.28,-0.05 -0.48,-0.3 -0.48,-0.54 0,-0.16 0.11,-0.35 0.38,-0.35 0.22,0 0.54,0.18 0.54,0.58 0,0.52 -0.59,0.66 -0.93,0.66 -0.58,0 -0.93,-0.53 -1.04,-0.76 -0.25,0.66 -0.79,0.76 -1.08,0.76 -1.03,0 -1.6,-1.29 -1.6,-1.53 0,-0.1 0.1,-0.1 0.12,-0.1 0.08,0 0.11,0.02 0.13,0.11 0.34,1.05 0.99,1.3 1.33,1.3 0.19,0 0.54,-0.09 0.54,-0.67 0,-0.31 -0.17,-0.97 -0.54,-2.36 -0.16,-0.62 -0.51,-1.04 -0.94,-1.04 -0.06,0 -0.29,0 -0.5,0.13 0.25,0.05 0.47,0.26 0.47,0.54 0,0.27 -0.22,0.35 -0.37,0.35 -0.3,0 -0.55,-0.26 -0.55,-0.58 0,-0.46 0.5,-0.65 0.94,-0.65 0.65,0 1.01,0.69 1.04,0.75 0.12,-0.37 0.48,-0.75 1.07,-0.75 1.03,0 1.6,1.28 1.6,1.53 0,0.1 -0.09,0.1 -0.12,0.1 -0.09,0 -0.11,-0.05 -0.13,-0.11 -0.33,-1.07 -1.01,-1.31 -1.33,-1.31 -0.38,0 -0.54,0.32 -0.54,0.66 0,0.22 0.06,0.44 0.17,0.87 z"
         inkscape:connector-curvature="0"
         style="fill:#000000;stroke-width:0" /></g>    <g
       style="font-style:normal;font-variant:normal;font-weight:normal;font-stretch:normal;letter-spacing:normal;word-spacing:normal;text-anchor:start;fill:#000000;fill-opacity:1;fill-rule:evenodd;stroke:#000000;stroke-linecap:butt;stroke-linejoin:miter;stroke-miterlimit:10.43299961;stroke-dasharray:none;stroke-dashoffset:0;stroke-opacity:1"
       id="g7964"
       transform="matrix(1,0,0,-1,-442.64828,832.31451)"
       xml:space="preserve"
       stroke-miterlimit="10.433"
       font-style="normal"
       font-variant="normal"
       font-weight="normal"
       font-stretch="normal"
       font-size-adjust="none"
       letter-spacing="normal"
       word-spacing="normal"
       ns0:text="$f(x)$"
       ns0:preamble="C:\\Users\\Xianglong Ni\\AppData\\Roaming\\inkscape\\extensions\\default_packages.tex"><path
         style="fill:#000000;stroke-width:0"
         inkscape:connector-curvature="0"
         d="m 152.36,711.1 h 0.86 c 0.2,0 0.3,0 0.3,0.2 0,0.11 -0.1,0.11 -0.27,0.11 h -0.83 l 0.21,1.13 c 0.04,0.21 0.18,0.91 0.24,1.03 0.09,0.19 0.26,0.34 0.47,0.34 0.04,0 0.3,0 0.49,-0.18 -0.44,-0.04 -0.54,-0.39 -0.54,-0.53 0,-0.23 0.18,-0.35 0.37,-0.35 0.25,0 0.54,0.22 0.54,0.59 0,0.46 -0.45,0.69 -0.86,0.69 -0.34,0 -0.97,-0.18 -1.27,-1.16 -0.06,-0.21 -0.08,-0.31 -0.32,-1.56 h -0.69 c -0.19,0 -0.3,0 -0.3,-0.19 0,-0.12 0.09,-0.12 0.28,-0.12 h 0.66 l -0.75,-3.93 c -0.18,-0.96 -0.35,-1.86 -0.86,-1.86 -0.05,0 -0.29,0 -0.48,0.18 0.46,0.03 0.54,0.38 0.54,0.53 0,0.23 -0.17,0.35 -0.36,0.35 -0.26,0 -0.55,-0.22 -0.55,-0.6 0,-0.44 0.44,-0.68 0.85,-0.68 0.54,0 0.94,0.58 1.12,0.96 0.32,0.63 0.55,1.83 0.56,1.9 z"
         id="path7956" /><path
         style="fill:#000000;stroke-width:0"
         inkscape:connector-curvature="0"
         d="m 157.96,704.74 -0.01,0.01 v 0 0 0.01 0 0 0.01 0 0 0.01 h -0.01 v 0.01 0 l -0.01,0.01 v 0 l -0.01,0.01 v 0.01 h -0.01 v 0.01 0 l -0.01,0.01 v 0 0 l -0.01,0.01 v 0 l -0.01,0.01 v 0 l -0.01,0.01 v 0 l -0.01,0.01 v 0 l -0.01,0.01 v 0.01 h -0.01 v 0.01 l -0.01,0.01 h -0.01 v 0.01 l -0.01,0.01 h -0.01 l -0.01,0.01 v 0.01 c -1.25,1.25 -1.57,3.13 -1.57,4.65 0,1.73 0.38,3.46 1.61,4.7 0.13,0.12 0.13,0.14 0.13,0.17 0,0.07 -0.05,0.1 -0.1,0.1 -0.1,0 -1,-0.68 -1.59,-1.94 -0.5,-1.09 -0.62,-2.2 -0.62,-3.03 0,-0.78 0.11,-1.98 0.65,-3.1 0.6,-1.22 1.46,-1.87 1.56,-1.87 0.05,0 0.1,0.03 0.1,0.1 z"
         id="path7958" /><path
         style="fill:#000000;stroke-width:0"
         inkscape:connector-curvature="0"
         d="m 161.86,710.13 0.01,0.02 v 0.03 l 0.01,0.03 0.01,0.04 0.01,0.04 0.01,0.04 0.02,0.04 0.01,0.05 0.02,0.04 0.01,0.05 0.02,0.05 0.02,0.05 0.03,0.05 0.02,0.05 0.03,0.05 0.02,0.05 0.03,0.05 0.03,0.04 0.04,0.05 0.03,0.04 0.04,0.05 0.04,0.04 0.04,0.04 0.05,0.03 0.04,0.03 0.05,0.03 0.03,0.01 0.02,0.02 0.03,0.01 0.03,0.01 0.02,0.01 h 0.03 l 0.03,0.01 0.03,0.01 h 0.03 0.03 l 0.03,0.01 h 0.04 c 0.05,0 0.28,0 0.49,-0.13 -0.28,-0.05 -0.47,-0.3 -0.47,-0.54 0,-0.16 0.1,-0.35 0.37,-0.35 0.22,0 0.54,0.18 0.54,0.58 0,0.52 -0.59,0.66 -0.93,0.66 -0.57,0 -0.92,-0.53 -1.04,-0.76 -0.25,0.66 -0.79,0.76 -1.07,0.76 -1.04,0 -1.61,-1.29 -1.61,-1.53 0,-0.1 0.1,-0.1 0.12,-0.1 0.08,0 0.11,0.02 0.13,0.11 0.34,1.05 1,1.3 1.34,1.3 0.18,0 0.53,-0.09 0.53,-0.67 0,-0.31 -0.17,-0.97 -0.53,-2.36 -0.16,-0.62 -0.51,-1.04 -0.95,-1.04 -0.06,0 -0.29,0 -0.5,0.13 0.25,0.05 0.47,0.26 0.47,0.54 0,0.27 -0.22,0.35 -0.37,0.35 -0.3,0 -0.54,-0.26 -0.54,-0.58 0,-0.46 0.49,-0.65 0.93,-0.65 0.66,0 1.02,0.69 1.04,0.75 0.13,-0.37 0.48,-0.75 1.08,-0.75 1.02,0 1.59,1.28 1.59,1.53 0,0.1 -0.09,0.1 -0.12,0.1 -0.09,0 -0.11,-0.05 -0.13,-0.11 -0.32,-1.07 -1,-1.31 -1.32,-1.31 -0.39,0 -0.55,0.32 -0.55,0.66 0,0.22 0.06,0.44 0.17,0.87 z"
         id="path7960" /><path
         style="fill:#000000;stroke-width:0"
         inkscape:connector-curvature="0"
         d="m 167.11,709.61 v 0.07 l -0.01,0.08 v 0.08 0.08 l -0.01,0.17 -0.01,0.17 -0.02,0.18 -0.02,0.19 -0.02,0.2 -0.04,0.2 -0.04,0.2 -0.04,0.21 -0.06,0.21 -0.06,0.21 -0.07,0.21 -0.07,0.21 -0.05,0.11 -0.04,0.11 -0.05,0.1 -0.05,0.11 c -0.6,1.22 -1.45,1.87 -1.55,1.87 -0.06,0 -0.1,-0.04 -0.1,-0.1 0,-0.03 0,-0.05 0.19,-0.23 0.97,-0.99 1.54,-2.57 1.54,-4.64 0,-1.7 -0.37,-3.45 -1.6,-4.7 -0.13,-0.12 -0.13,-0.14 -0.13,-0.17 0,-0.06 0.04,-0.1 0.1,-0.1 0.1,0 0.99,0.68 1.58,1.94 0.51,1.09 0.63,2.19 0.63,3.03 z"
         id="path7962" /></g>    <g
       ns0:preamble="C:\\Users\\Xianglong Ni\\AppData\\Roaming\\inkscape\\extensions\\default_packages.tex"
       ns0:text="$g(x)$"
       word-spacing="normal"
       letter-spacing="normal"
       font-size-adjust="none"
       font-stretch="normal"
       font-weight="normal"
       font-variant="normal"
       font-style="normal"
       stroke-miterlimit="10.433"
       xml:space="preserve"
       transform="matrix(1,0,0,-1,-369.14171,800.56444)"
       id="g8100"
       style="font-style:normal;font-variant:normal;font-weight:normal;font-stretch:normal;letter-spacing:normal;word-spacing:normal;text-anchor:start;fill:#000000;fill-opacity:1;fill-rule:evenodd;stroke:#000000;stroke-linecap:butt;stroke-linejoin:miter;stroke-miterlimit:10.43299961;stroke-dasharray:none;stroke-dashoffset:0;stroke-opacity:1"><path
         id="path8092"
         d="m 155.94917,703.0625 v 0.01 0.01 0.01 l 0.01,0.01 v 0.02 0.02 l 0.01,0.01 v 0.01 0.01 0.01 0.01 l 0.01,0.01 v 0.01 0 0.01 0.01 0 0.01 c 0,0.17 -0.12,0.27 -0.29,0.27 -0.1,0 -0.37,-0.07 -0.41,-0.43 -0.18,0.37 -0.53,0.63 -0.92,0.63 l 0.01,-0.22 c 0.65,0 0.79,-0.81 0.79,-0.86 0,-0.05 -0.02,-0.11 -0.03,-0.15 l -0.48,-1.89 c -0.06,-0.26 -0.28,-0.51 -0.5,-0.7 -0.21,-0.18 -0.52,-0.36 -0.81,-0.36 -0.5,0 -0.64,0.52 -0.64,0.92 0,0.47 0.28,1.65 0.55,2.15 0.27,0.49 0.7,0.89 1.12,0.89 l -0.01,0.22 c -1.14,0 -2.37,-1.39 -2.37,-2.83 0,-0.98 0.6,-1.56 1.32,-1.56 0.59,0 1.06,0.46 1.16,0.57 l 0.01,-0.01 c -0.21,-0.88 -0.33,-1.29 -0.33,-1.31 -0.04,-0.09 -0.38,-1.07 -1.44,-1.07 -0.18,0 -0.51,0.01 -0.79,0.1 0.3,0.09 0.41,0.34 0.41,0.51 0,0.16 -0.11,0.35 -0.38,0.35 -0.22,0 -0.54,-0.18 -0.54,-0.58 0,-0.4 0.37,-0.6 1.32,-0.6 1.25,0 1.96,0.77 2.11,1.37 z"
         inkscape:connector-curvature="0"
         style="fill:#000000;stroke-width:0" /><path
         id="path8094"
         d="m 159.66917,696.9325 -0.01,0.01 v 0 0 0.01 0 0 0.01 0 0 0.01 h -0.01 v 0.01 0 l -0.01,0.01 v 0 l -0.01,0.01 v 0.01 h -0.01 v 0.01 0 l -0.01,0.01 v 0 0 l -0.01,0.01 v 0 l -0.01,0.01 v 0 l -0.01,0.01 v 0 l -0.01,0.01 v 0 l -0.01,0.01 v 0.01 h -0.01 v 0.01 l -0.01,0.01 h -0.01 v 0.01 l -0.01,0.01 h -0.01 l -0.01,0.01 v 0.01 c -1.25,1.25 -1.57,3.13 -1.57,4.65 0,1.73 0.38,3.46 1.61,4.7 0.13,0.12 0.13,0.14 0.13,0.17 0,0.07 -0.05,0.1 -0.1,0.1 -0.1,0 -1,-0.68 -1.59,-1.94 -0.5,-1.09 -0.62,-2.2 -0.62,-3.03 0,-0.78 0.11,-1.98 0.65,-3.1 0.6,-1.22 1.46,-1.87 1.56,-1.87 0.05,0 0.1,0.03 0.1,0.1 z"
         inkscape:connector-curvature="0"
         style="fill:#000000;stroke-width:0" /><path
         id="path8096"
         d="m 163.56917,702.3225 0.01,0.02 v 0.03 l 0.01,0.03 0.01,0.04 0.01,0.04 0.01,0.04 0.02,0.04 0.01,0.05 0.02,0.04 0.01,0.05 0.02,0.05 0.02,0.05 0.03,0.05 0.02,0.05 0.03,0.05 0.02,0.05 0.03,0.05 0.03,0.04 0.04,0.05 0.03,0.04 0.04,0.05 0.04,0.04 0.04,0.04 0.04,0.03 0.05,0.03 0.05,0.03 0.02,0.01 0.03,0.02 0.03,0.01 0.02,0.01 0.03,0.01 h 0.03 l 0.03,0.01 0.03,0.01 h 0.03 0.03 l 0.03,0.01 h 0.03 c 0.05,0 0.29,0 0.5,-0.13 -0.28,-0.05 -0.48,-0.3 -0.48,-0.54 0,-0.16 0.11,-0.35 0.38,-0.35 0.22,0 0.54,0.18 0.54,0.58 0,0.52 -0.59,0.66 -0.93,0.66 -0.57,0 -0.92,-0.53 -1.04,-0.76 -0.25,0.66 -0.79,0.76 -1.07,0.76 -1.04,0 -1.61,-1.29 -1.61,-1.53 0,-0.1 0.1,-0.1 0.12,-0.1 0.08,0 0.11,0.02 0.13,0.11 0.34,1.05 1,1.3 1.34,1.3 0.18,0 0.53,-0.09 0.53,-0.67 0,-0.31 -0.17,-0.97 -0.53,-2.36 -0.16,-0.62 -0.51,-1.04 -0.95,-1.04 -0.06,0 -0.29,0 -0.5,0.13 0.25,0.05 0.47,0.26 0.47,0.54 0,0.27 -0.22,0.35 -0.37,0.35 -0.3,0 -0.54,-0.26 -0.54,-0.58 0,-0.46 0.49,-0.65 0.93,-0.65 0.66,0 1.01,0.69 1.04,0.75 0.12,-0.37 0.48,-0.75 1.08,-0.75 1.02,0 1.59,1.28 1.59,1.53 0,0.1 -0.09,0.1 -0.12,0.1 -0.09,0 -0.11,-0.05 -0.13,-0.11 -0.33,-1.07 -1,-1.31 -1.32,-1.31 -0.39,0 -0.55,0.32 -0.55,0.66 0,0.22 0.06,0.44 0.17,0.87 z"
         inkscape:connector-curvature="0"
         style="fill:#000000;stroke-width:0" /><path
         id="path8098"
         d="m 168.80917,701.8025 v 0.07 0.08 0.08 0.08 l -0.01,0.17 -0.01,0.17 -0.02,0.18 -0.02,0.19 -0.03,0.2 -0.03,0.2 -0.04,0.2 -0.04,0.21 -0.06,0.21 -0.06,0.21 -0.07,0.21 -0.08,0.21 -0.04,0.11 -0.04,0.11 -0.05,0.1 -0.05,0.11 c -0.6,1.22 -1.45,1.87 -1.55,1.87 -0.06,0 -0.1,-0.04 -0.1,-0.1 0,-0.03 0,-0.05 0.19,-0.23 0.97,-0.99 1.54,-2.57 1.54,-4.64 0,-1.7 -0.37,-3.45 -1.6,-4.7 -0.13,-0.12 -0.13,-0.14 -0.13,-0.17 0,-0.06 0.04,-0.1 0.1,-0.1 0.1,0 0.99,0.68 1.58,1.94 0.51,1.09 0.62,2.19 0.62,3.03 z"
         inkscape:connector-curvature="0"
         style="fill:#000000;stroke-width:0" /></g>    <circle
       id="path4852"
       style="fill:#000000;stroke:none"
       cx="-219.83522"
       cy="104.36866"
       r="0.85039371" />
    <circle
       id="path4854"
       style="fill:#000000;stroke:none"
       cx="-244.53091"
       cy="115.03272"
       r="0.85039371" />
    <circle
       id="path4856"
       style="fill:#000000;stroke:none"
       cx="-277.50443"
       cy="129.52312"
       r="0.85039371" />
    <g
       style="font-style:normal;font-variant:normal;font-weight:normal;font-stretch:normal;letter-spacing:normal;word-spacing:normal;text-anchor:start;fill:#000000;fill-opacity:1;fill-rule:evenodd;stroke:#000000;stroke-linecap:butt;stroke-linejoin:miter;stroke-miterlimit:10.43299961;stroke-dasharray:none;stroke-dashoffset:0;stroke-opacity:1"
       id="g4745"
       transform="matrix(1,0,0,-1,-409.30164,859.88576)"
       xml:space="preserve"
       stroke-miterlimit="10.433"
       font-style="normal"
       font-variant="normal"
       font-weight="normal"
       font-stretch="normal"
       font-size-adjust="none"
       letter-spacing="normal"
       word-spacing="normal"
       ns0:text="$D^n$"
       ns0:preamble="C:\\Users\\Xianglong Ni\\AppData\\Roaming\\inkscape\\extensions\\default_packages.tex"><path
         style="fill:#000000;stroke-width:0"
         inkscape:connector-curvature="0"
         d="m 150.29,707.9 -0.01,-0.04 v -0.03 l -0.01,-0.03 -0.01,-0.03 -0.01,-0.03 -0.01,-0.03 -0.01,-0.02 -0.01,-0.03 -0.01,-0.02 -0.01,-0.02 -0.01,-0.02 -0.02,-0.02 -0.01,-0.02 -0.02,-0.01 -0.02,-0.02 -0.02,-0.01 -0.02,-0.01 -0.03,-0.01 -0.03,-0.01 -0.03,-0.01 -0.03,-0.01 h -0.02 l -0.01,-0.01 h -0.02 -0.02 l -0.02,-0.01 h -0.02 -0.02 -0.03 l -0.02,-0.01 h -0.02 -0.03 -0.03 -0.02 -0.03 -0.03 -0.03 l -0.03,-0.01 h -0.03 -0.04 -0.03 -0.03 -0.04 c -0.17,0 -0.28,0 -0.28,-0.19 0,-0.11 0.09,-0.11 0.28,-0.11 h 3.29 l -0.18,0.3 h -1.12 c -0.14,0 -0.16,0 -0.22,0.01 -0.1,0.01 -0.13,0.02 -0.13,0.1 0,0.03 0,0.05 0.05,0.23 l 1.36,5.45 c 0.09,0.35 0.11,0.38 0.54,0.38 h 1.06 c 0.98,0 1.81,-0.52 1.81,-1.84 0,-0.48 -0.2,-2.11 -1.05,-3.21 -0.29,-0.36 -1.07,-1.12 -2.3,-1.12 l 0.18,-0.3 c 2.07,0 4.03,2.09 4.03,4.27 0,1.4 -0.84,2.51 -2.34,2.51 h -3.34 c -0.19,0 -0.3,0 -0.3,-0.19 0,-0.12 0.09,-0.12 0.29,-0.12 0.13,0 0.31,-0.01 0.43,-0.02 0.16,-0.02 0.22,-0.05 0.22,-0.16 0,-0.04 -0.01,-0.07 -0.04,-0.19 z"
         id="path4741" /><path
         style="fill:#000000;stroke-width:0"
         inkscape:connector-curvature="0"
         d="m 158.09,711.18 -0.01,-0.01 v -0.01 -0.01 -0.01 l -0.01,-0.01 v -0.01 -0.01 l -0.01,-0.01 v -0.02 l -0.01,-0.03 v -0.02 l -0.01,-0.02 V 711 710.99 l -0.01,-0.01 v -0.01 -0.01 -0.01 -0.01 l -0.01,-0.01 v 0 -0.01 -0.01 0 -0.01 0 0 0 -0.01 0 c 0,-0.15 0.12,-0.22 0.23,-0.22 0.13,0 0.24,0.09 0.27,0.15 0.04,0.07 0.1,0.29 0.13,0.44 0.04,0.13 0.11,0.45 0.15,0.62 0.05,0.15 0.09,0.31 0.12,0.47 0.08,0.28 0.09,0.34 0.29,0.62 0.2,0.28 0.53,0.64 1.05,0.64 0.4,0 0.41,-0.35 0.41,-0.48 0,-0.42 -0.3,-1.19 -0.41,-1.49 -0.08,-0.19 -0.11,-0.25 -0.11,-0.37 0,-0.37 0.31,-0.6 0.67,-0.6 0.69,0 1,0.96 1,1.06 0,0.1 -0.09,0.1 -0.11,0.1 -0.1,0 -0.11,-0.05 -0.13,-0.12 -0.16,-0.56 -0.46,-0.85 -0.74,-0.85 -0.15,0 -0.18,0.1 -0.18,0.25 0,0.16 0.04,0.25 0.16,0.56 0.09,0.22 0.37,0.95 0.37,1.34 0,0.68 -0.53,0.8 -0.9,0.8 -0.58,0 -0.97,-0.36 -1.18,-0.64 -0.05,0.48 -0.46,0.64 -0.74,0.64 -0.3,0 -0.46,-0.22 -0.55,-0.38 -0.16,-0.26 -0.26,-0.65 -0.26,-0.69 0,-0.09 0.1,-0.09 0.12,-0.09 0.1,0 0.11,0.02 0.16,0.21 0.1,0.41 0.23,0.75 0.5,0.75 0.18,0 0.23,-0.15 0.23,-0.34 0,-0.13 -0.06,-0.39 -0.11,-0.58 -0.05,-0.18 -0.12,-0.47 -0.15,-0.62 z"
         id="path4743" /></g>    <g
       ns0:preamble="C:\\Users\\Xianglong Ni\\AppData\\Roaming\\inkscape\\extensions\\default_packages.tex"
       ns0:text="$S^{n-1}$"
       word-spacing="normal"
       letter-spacing="normal"
       font-size-adjust="none"
       font-stretch="normal"
       font-weight="normal"
       font-variant="normal"
       font-style="normal"
       stroke-miterlimit="10.433"
       xml:space="preserve"
       transform="matrix(1,0,0,-1,-372.57497,874.46781)"
       id="g4900"
       style="font-style:normal;font-variant:normal;font-weight:normal;font-stretch:normal;letter-spacing:normal;word-spacing:normal;text-anchor:start;fill:#000000;fill-opacity:1;fill-rule:evenodd;stroke:#000000;stroke-linecap:butt;stroke-linejoin:miter;stroke-miterlimit:10.43299961;stroke-dasharray:none;stroke-dashoffset:0;stroke-opacity:1"><path
         id="path4892"
         d="m 155.13,714.03 v 0 0.01 0 0 0.01 0 0 l -0.01,0.01 v 0 0.01 0 0 0.01 h -0.01 v 0.01 0 h -0.01 v 0.01 0 h -0.01 v 0.01 h -0.01 v 0 l -0.01,0.01 v 0 0 h -0.01 v 0 0 h -0.01 v 0 0.01 h -0.01 v 0 0 h -0.01 v 0 h -0.01 v 0 c -0.05,0 -0.06,-0.01 -0.18,-0.15 l -0.48,-0.57 c -0.26,0.47 -0.77,0.72 -1.42,0.72 -1.26,0 -2.46,-1.14 -2.46,-2.35 0,-0.8 0.53,-1.26 1.04,-1.41 l 1.06,-0.28 c 0.37,-0.08 0.92,-0.23 0.92,-1.05 0,-0.89 -0.82,-1.83 -1.79,-1.83 -0.64,0 -1.74,0.22 -1.74,1.45 0,0.24 0.04,0.48 0.05,0.54 0.02,0.04 0.02,0.05 0.02,0.07 0,0.1 -0.06,0.11 -0.11,0.11 -0.05,0 -0.07,-0.01 -0.1,-0.04 -0.04,-0.04 -0.6,-2.3 -0.6,-2.33 0,-0.06 0.05,-0.1 0.11,-0.1 0.05,0 0.06,0.01 0.18,0.14 l 0.49,0.57 c 0.42,-0.57 1.1,-0.71 1.68,-0.71 1.35,0 2.52,1.32 2.52,2.55 0,0.69 -0.33,1.02 -0.48,1.16 -0.23,0.23 -0.38,0.27 -1.27,0.5 -0.22,0.06 -0.57,0.16 -0.66,0.18 -0.27,0.09 -0.61,0.37 -0.61,0.9 0,0.81 0.8,1.65 1.74,1.65 0.83,0 1.43,-0.43 1.43,-1.54 0,-0.32 -0.04,-0.5 -0.04,-0.56 0,-0.01 0,-0.09 0.12,-0.09 0.1,0 0.11,0.02 0.15,0.19 z"
         inkscape:connector-curvature="0"
         style="fill:#000000;stroke-width:0" /><path
         id="path4894"
         d="m 156.25,711.18 -0.01,-0.01 v -0.01 -0.01 l -0.01,-0.01 v -0.01 -0.01 -0.01 l -0.01,-0.01 v -0.02 l -0.01,-0.03 v -0.02 l -0.01,-0.02 V 711 710.99 l -0.01,-0.01 v -0.01 -0.01 -0.01 l -0.01,-0.01 v -0.01 0 -0.01 -0.01 0 -0.01 0 0 0 -0.01 0 c 0,-0.15 0.12,-0.22 0.23,-0.22 0.13,0 0.24,0.09 0.27,0.15 0.04,0.07 0.09,0.29 0.13,0.44 0.04,0.13 0.11,0.45 0.15,0.62 0.05,0.15 0.09,0.31 0.12,0.47 0.08,0.28 0.09,0.34 0.29,0.62 0.2,0.28 0.53,0.64 1.05,0.64 0.4,0 0.41,-0.35 0.41,-0.48 0,-0.42 -0.3,-1.19 -0.41,-1.49 -0.08,-0.19 -0.11,-0.25 -0.11,-0.37 0,-0.37 0.31,-0.6 0.67,-0.6 0.69,0 1,0.96 1,1.06 0,0.1 -0.09,0.1 -0.11,0.1 -0.1,0 -0.11,-0.05 -0.13,-0.12 -0.17,-0.56 -0.47,-0.85 -0.74,-0.85 -0.15,0 -0.18,0.1 -0.18,0.25 0,0.16 0.04,0.25 0.16,0.56 0.09,0.22 0.37,0.95 0.37,1.34 0,0.68 -0.53,0.8 -0.9,0.8 -0.58,0 -0.97,-0.36 -1.18,-0.64 -0.05,0.48 -0.46,0.64 -0.75,0.64 -0.29,0 -0.45,-0.22 -0.55,-0.38 -0.15,-0.26 -0.25,-0.65 -0.25,-0.69 0,-0.09 0.1,-0.09 0.12,-0.09 0.1,0 0.11,0.02 0.15,0.21 0.11,0.41 0.24,0.75 0.51,0.75 0.18,0 0.23,-0.15 0.23,-0.34 0,-0.13 -0.06,-0.39 -0.11,-0.58 -0.05,-0.18 -0.12,-0.47 -0.15,-0.62 z"
         inkscape:connector-curvature="0"
         style="fill:#000000;stroke-width:0" /><path
         id="path4896"
         d="m 165.5,712.31 h 0.01 0.01 0.01 0.02 0.02 0.01 0.01 0.01 l 0.02,0.01 h 0.01 0.01 0.01 0.01 l 0.01,0.01 h 0.01 l 0.01,0.01 h 0.01 l 0.01,0.01 h 0.01 l 0.01,0.01 0.01,0.01 h 0.01 v 0.01 0 l 0.01,0.01 v 0 0.01 0 l 0.01,0.01 v 0 0.01 0 0.01 l 0.01,0.01 v 0 0.01 0.01 0 0.01 0.01 c 0,0.17 -0.16,0.17 -0.28,0.17 h -4.15 c -0.11,0 -0.28,0 -0.28,-0.17 0,-0.17 0.16,-0.17 0.28,-0.17 z"
         inkscape:connector-curvature="0"
         style="fill:#000000;stroke-width:0" /><path
         id="path4898"
         d="m 168.88,715.16 v 0.01 0.01 0.01 0.01 0 0.01 0.01 0.01 0 0.01 0 0.01 0.01 0 0.01 h -0.01 v 0.01 0 0.01 0.01 0.01 h -0.01 v 0.01 l -0.01,0.01 v 0 h -0.01 v 0.01 h -0.01 -0.01 l -0.01,0.01 v 0 h -0.01 -0.01 v 0 h -0.01 -0.01 v 0 l -0.01,0.01 v 0 h -0.01 -0.01 v 0 h -0.01 -0.01 -0.01 v 0 h -0.01 -0.01 -0.01 -0.01 c -0.44,-0.44 -1.08,-0.45 -1.36,-0.45 v -0.25 c 0.16,0 0.62,0 1.01,0.2 v -3.55 c 0,-0.23 0,-0.32 -0.7,-0.32 h -0.27 v -0.25 c 0.13,0.01 0.99,0.03 1.25,0.03 0.21,0 1.09,-0.02 1.24,-0.03 v 0.25 h -0.26 c -0.7,0 -0.7,0.09 -0.7,0.32 z"
         inkscape:connector-curvature="0"
         style="fill:#000000;stroke-width:0" /></g>  </g>
</svg>
